<svg id="Layer_1" data-name="Layer 1" xmlns="http://www.w3.org/2000/svg" viewBox="0 0 105.27 90.96"><defs><style>.cls-1{fill:#cd2b27;}.cls-2{fill:#ed6660;}.cls-3{fill:#fff;}</style></defs><title>Gate</title><rect class="cls-1" x="6.97" y="16.14" width="11.74" height="74.83"/><circle class="cls-1" cx="12.84" cy="9.72" r="9.72"/><rect class="cls-1" x="18.34" y="74.32" width="67.86" height="12.98"/><rect class="cls-2" y="14.3" width="26.04" height="5.14" rx="2.57" ry="2.57"/><rect class="cls-1" x="86.2" y="16.14" width="11.74" height="74.83"/><circle class="cls-1" cx="92.06" cy="9.72" r="9.72"/><rect class="cls-2" x="79.23" y="14.3" width="26.04" height="5.14" rx="2.57" ry="2.57"/><rect class="cls-3" x="18.34" y="79.1" width="67.86" height="3.41"/><rect class="cls-1" x="18.38" y="25.66" width="67.86" height="12.98"/><rect class="cls-3" x="18.38" y="30.44" width="67.86" height="3.41"/><rect class="cls-1" x="28.61" y="16.87" width="5.87" height="60.15" rx="2.93" ry="2.93"/><rect class="cls-1" x="70.85" y="16.87" width="5.87" height="60.15" rx="2.93" ry="2.93"/><rect class="cls-1" x="49.73" y="7.47" width="5.87" height="69.56" rx="2.93" ry="2.93"/><rect class="cls-1" x="39.17" y="11.39" width="5.87" height="65.63" rx="2.93" ry="2.93"/><rect class="cls-1" x="60.29" y="11.39" width="5.87" height="65.63" rx="2.93" ry="2.93"/></svg>